<?xml version="1.0" standalone="no"?>
<!DOCTYPE svg PUBLIC "-//W3C//DTD SVG 20010904//EN"
 "http://www.w3.org/TR/2001/REC-SVG-20010904/DTD/svg10.dtd">
<svg version="1.0" xmlns="http://www.w3.org/2000/svg"
 width="500.000000pt" height="500.000000pt" viewBox="0 0 500.000000 500.000000"
 preserveAspectRatio="xMidYMid meet">
<metadata>
Created by potrace 1.14, written by Peter Selinger 2001-2017
</metadata>
<g transform="translate(0.000000,500.000000) scale(0.100000,-0.100000)"
fill="#000000" stroke="none">
<path d="M2481 3605 c-18 -8 -44 -15 -57 -15 -13 0 -24 -4 -24 -8 0 -5 -6 -9
-12 -9 -7 -1 -74 -22 -148 -48 -74 -25 -139 -48 -145 -49 -5 -2 -17 -6 -25 -9
-8 -3 -55 -20 -105 -36 -49 -16 -162 -55 -250 -86 -178 -63 -168 -60 -212 -70
-18 -4 -33 -11 -33 -15 0 -4 -15 -11 -32 -15 -18 -4 -35 -9 -38 -10 -3 -1 -25
-7 -50 -14 -25 -7 -49 -16 -55 -21 -11 -9 -76 -25 -88 -22 -4 1 -7 -3 -7 -9 0
-5 -4 -7 -10 -4 -5 3 -10 1 -10 -6 0 -7 -3 -10 -6 -7 -3 3 -41 -7 -84 -22 -43
-15 -81 -25 -84 -22 -3 3 -6 0 -6 -6 0 -7 -7 -12 -16 -12 -9 0 -47 -11 -85
-25 -38 -13 -69 -21 -69 -17 0 4 -4 2 -8 -4 -4 -6 -54 -26 -112 -43 -58 -18
-114 -36 -125 -41 -30 -14 -137 -51 -161 -57 -29 -7 -70 -43 -78 -70 -15 -49
-18 -78 -21 -296 -4 -203 -11 -268 -29 -259 -16 7 -57 -35 -72 -73 -19 -51
-13 -106 17 -143 23 -30 24 -36 2 -58 -10 -10 -17 -19 -15 -21 1 -2 -4 -16
-12 -31 -12 -23 -33 -88 -42 -127 -3 -15 -16 -87 -19 -110 -2 -11 -4 -20 -5
-20 -1 0 -3 -7 -5 -15 -26 -101 -34 -131 -48 -163 -17 -40 -14 -62 9 -71 10
-4 18 4 25 22 18 45 59 215 59 244 0 15 4 29 8 32 5 3 9 22 10 42 1 21 6 42
12 48 11 11 7 -61 -10 -152 -5 -29 -9 -56 -9 -60 1 -4 0 -10 -1 -14 -1 -5 -4
-17 -5 -28 -1 -11 -3 -21 -5 -22 -1 -2 -3 -16 -5 -33 -2 -16 -6 -46 -10 -66
-6 -32 -5 -38 15 -44 27 -8 35 -1 36 33 1 15 3 27 4 27 2 0 4 14 6 30 2 17 6
41 8 55 2 14 5 31 5 38 1 6 6 12 11 12 6 0 8 -10 5 -22 -3 -13 -7 -41 -9 -63
-3 -22 -5 -40 -6 -40 -1 0 -3 -19 -5 -42 -4 -51 6 -56 104 -53 91 2 91 2 91
12 0 5 5 6 11 2 8 -5 10 3 7 24 -2 17 -1 29 4 26 4 -3 8 -11 8 -19 0 -22 22
-23 75 -2 28 12 52 22 53 23 2 1 -10 44 -27 94 -17 50 -29 95 -26 101 4 5 1 9
-5 9 -7 0 -10 7 -7 15 4 8 2 17 -4 20 -5 4 -7 10 -4 15 3 5 1 11 -5 15 -6 4
-8 10 -5 14 3 7 -10 84 -28 156 -9 35 -41 105 -48 105 -5 0 -9 11 -9 25 0 14
4 25 9 25 15 0 41 79 37 113 -6 45 -23 87 -36 87 -6 0 -9 4 -6 8 2 4 -8 13
-23 20 -15 7 -28 18 -29 25 -4 32 -8 394 -4 405 3 10 10 8 25 -5 11 -10 17
-12 13 -5 -8 14 5 16 20 3 15 -14 279 -97 297 -93 4 1 7 -2 7 -8 0 -6 3 -9 8
-9 4 1 9 0 12 -1 3 -1 13 -3 22 -5 26 -5 89 -25 128 -40 19 -8 82 -28 140 -46
58 -18 142 -45 188 -60 45 -16 83 -28 85 -28 1 0 14 -4 28 -10 25 -9 26 -13
23 -63 -5 -65 -8 -80 -17 -95 -4 -6 -3 -14 2 -18 6 -3 8 -12 5 -20 -4 -8 -7
-36 -9 -62 -2 -27 -4 -48 -4 -48 -1 0 -4 -23 -6 -52 -2 -29 -6 -83 -10 -120
-3 -37 -8 -95 -10 -128 -2 -33 -4 -65 -5 -70 -1 -6 -1 -13 0 -17 5 -15 7 -28
9 -41 0 -7 16 -29 34 -48 28 -32 35 -35 60 -27 15 6 25 14 21 19 -3 5 4 9 15
9 11 0 22 4 26 9 7 12 117 48 165 55 19 2 46 8 60 11 50 14 343 12 420 -1 100
-19 130 -24 160 -28 14 -2 48 -9 75 -16 28 -7 60 -14 72 -15 12 -2 27 -6 33
-10 15 -10 112 -8 119 2 3 4 15 9 26 10 29 3 70 11 70 13 0 2 9 4 20 6 11 1
29 5 41 7 209 49 507 56 664 16 25 -6 52 -12 60 -14 8 -2 15 -4 15 -5 0 -1 7
-3 15 -5 8 -1 33 -10 55 -19 22 -10 41 -17 43 -16 1 0 12 -8 23 -19 28 -26 52
-12 80 45 17 37 19 53 13 140 -4 55 -8 118 -8 141 -1 24 -4 43 -7 43 -4 0 -7
21 -8 48 -4 90 -7 117 -15 130 -4 7 -2 12 6 12 8 0 9 3 3 8 -6 4 -11 36 -12
72 -1 36 -4 84 -6 107 -3 42 11 62 34 47 5 -3 9 -2 9 3 0 4 19 14 43 21 23 7
74 22 112 34 83 24 88 26 96 24 3 0 12 4 20 10 11 9 46 22 79 28 3 1 55 18
115 38 61 20 142 46 180 58 39 11 77 24 85 27 18 8 17 7 58 17 17 4 32 12 32
17 0 6 5 7 10 4 6 -4 35 3 66 14 30 12 60 19 65 16 5 -4 9 -1 9 4 0 6 7 11 16
11 22 0 178 53 182 61 2 4 12 4 23 2 16 -5 20 -2 17 13 -2 12 -19 23 -53 32
-28 8 -53 19 -56 24 -3 5 -8 8 -10 7 -6 -5 -163 43 -176 54 -7 5 -13 6 -13 2
0 -4 -6 -3 -12 2 -7 6 -26 14 -43 18 -44 12 -45 12 -50 15 -3 1 -8 3 -12 5 -5
1 -15 5 -23 8 -22 9 -154 51 -162 52 -3 0 -10 3 -14 8 -4 4 -16 7 -26 7 -10 0
-26 4 -36 10 -25 14 -318 110 -336 110 -9 0 -16 5 -16 12 0 6 -3 8 -7 5 -3 -4
-12 -2 -20 4 -7 6 -13 9 -13 6 0 -3 -30 6 -67 20 -38 13 -75 26 -83 28 -8 2
-123 40 -255 85 -132 45 -248 83 -257 85 -9 2 -25 8 -36 14 -11 6 -22 7 -26 4
-3 -3 -6 -1 -6 5 0 7 -6 12 -13 12 -15 0 -130 35 -162 50 -22 10 -67 23 -75
22 -3 0 -14 5 -25 11 -11 6 -22 12 -25 12 -3 0 -36 12 -75 25 -38 13 -72 25
-75 25 -34 9 -67 19 -75 24 -5 3 -14 6 -20 8 -5 1 -19 4 -30 7 -11 3 -35 -1
-54 -9z m-717 -853 c-16 -16 -31 -27 -33 -25 -2 2 -19 -8 -37 -22 -18 -14 -37
-25 -43 -25 -6 0 -11 -4 -11 -8 0 -13 32 -8 71 10 60 28 79 31 79 14 0 -9 -7
-16 -15 -16 -9 0 -18 -7 -21 -15 -4 -8 -10 -12 -15 -9 -5 3 -9 2 -9 -3 0 -4
-19 -19 -41 -33 -39 -24 -78 -70 -60 -70 5 0 13 5 16 10 3 6 17 10 30 10 13 0
25 4 27 9 2 6 15 12 30 15 20 3 25 1 21 -9 -2 -8 -13 -17 -24 -20 -11 -4 -17
-11 -14 -16 4 -5 2 -9 -3 -9 -5 0 -22 -11 -38 -25 -35 -30 -27 -32 28 -5 l41
19 -19 -22 c-10 -12 -23 -26 -29 -32 -5 -5 -22 -26 -37 -46 -20 -27 -24 -39
-15 -48 6 -6 7 -11 1 -11 -5 0 -10 -33 -12 -73 -3 -79 -9 -162 -12 -162 -2 0
-9 -102 -13 -190 -2 -42 1 -50 15 -47 9 1 19 -2 23 -8 3 -6 0 -7 -9 -4 -9 3
-16 1 -16 -6 0 -6 -4 -8 -10 -5 -5 3 -10 1 -10 -5 0 -6 -4 -9 -9 -5 -5 3 -15
0 -23 -7 -7 -7 -20 -14 -28 -16 -8 -2 -27 -9 -42 -17 l-27 -13 5 37 c4 34 10
105 19 251 2 36 7 97 10 135 4 39 8 95 10 125 4 66 15 189 19 210 20 102 37
142 66 148 8 2 18 9 22 15 4 7 8 8 8 3 0 -5 6 -4 13 2 10 8 64 24 89 26 3 1 9
3 12 6 3 3 15 6 27 7 21 2 21 1 -7 -25z m-1434 -517 c0 -3 -9 -15 -20 -27 -10
-12 -17 -25 -14 -29 2 -4 0 -10 -4 -13 -5 -3 -8 -22 -6 -43 3 -37 2 -37 -11
-13 -17 31 -12 71 12 104 16 22 43 35 43 21z m-93 -365 c-1 -11 -5 -20 -9 -20
-10 0 -10 4 -2 24 8 22 13 20 11 -4z m30 -235 c0 -8 -4 -12 -9 -9 -5 3 -6 10
-3 15 9 13 12 11 12 -6z"/>
<path d="M270 2850 c-30 -10 -60 -19 -66 -19 -6 -1 -29 -8 -50 -17 -32 -13
-35 -17 -21 -25 9 -6 20 -10 24 -11 5 -1 40 -12 78 -24 l70 -22 8 41 c5 23 9
47 11 54 1 7 5 16 9 19 9 10 9 24 0 23 -5 0 -33 -9 -63 -19z"/>
</g>
</svg>
